<svg width="307" height="77" viewBox="0 0 307 77" fill="none" xmlns="http://www.w3.org/2000/svg">
<path d="M0.000275608 19.1516V57.4548L33.1727 76.6066V63.6244L11.2432 50.9637V25.6413L0 19.1501L0.000275608 19.1516Z" fill="black"/>
<path d="M66.3478 19.1516L55.1047 25.6427V50.9651L33.1752 63.6259V76.6081L66.3476 57.4562V19.153L66.3478 19.1516Z" fill="#999999"/>
<path d="M33.1755 0L0.00305176 19.1519L11.2462 25.643L33.1757 12.9822L55.1052 25.643L66.3484 19.1519L33.176 0H33.1755Z" fill="#333333"/>
<path d="M33.1755 12.9822V22.1071L47.2028 30.2054V46.403L55.1051 50.9654V25.643L33.1755 12.9822V12.9822Z" fill="black"/>
<path d="M33.1755 12.9822L11.246 25.643V50.9654L19.1482 46.403V30.2054L33.1755 22.1071V12.9822V12.9822Z" fill="#999999"/>
<path d="M19.1462 46.403L11.244 50.9654L33.1735 63.6261L55.103 50.9654L47.2008 46.403L33.1735 54.5013L19.1462 46.403V46.403Z" fill="#333333"/>
<path d="M19.1462 30.2062V46.4038L33.1738 54.5025V38.3049L19.1462 30.2062Z" fill="black"/>
<path d="M47.2019 30.2062L33.1743 38.3049V54.5025L47.2019 46.4038V30.2062Z" fill="#999999"/>
<path d="M33.1755 22.1064L19.1479 30.2051L33.1755 38.3037L47.2031 30.2051L33.1755 22.1064Z" fill="#333333"/>
<path d="M85.1406 46.9141C85.3906 46.8828 85.5703 46.8438 85.6797 46.7969V46.375L85.2812 46.0469C85.25 45.7031 85.2031 45.3125 85.1406 44.875C85.125 44.7812 85.1172 44.6875 85.1172 44.5938C85.1172 44.2969 85.2891 43.9531 85.6328 43.5625L85.5625 43.4922C85.5312 43.2266 85.4453 43.0156 85.3047 42.8594C85.2109 42.75 85.1328 42.5625 85.0703 42.2969C84.9609 41.8125 84.9062 41.4453 84.9062 41.1953L85.0703 39.3438V38.2891V37.7266L85.3984 37.3516C85.0703 37.2422 84.9062 37.1641 84.9062 37.1172C85 35.9297 85.0469 35.3281 85.0469 35.3125C85.0469 35.0938 84.9922 34.5703 84.8828 33.7422L84.9766 33.6484L84.9062 32.4766C85.0938 32.3672 85.3047 32.2891 85.5391 32.2422C85.6641 32.2109 85.7969 32.1484 85.9375 32.0547C85.875 31.8047 85.7344 31.5859 85.5156 31.3984C85.5469 31.2578 85.5625 31.1562 85.5625 31.0938C85.5625 30.9219 85.4922 30.6953 85.3516 30.4141L84.8828 30.7188C84.6484 30.1875 84.5312 29.7734 84.5312 29.4766C84.5312 29.3672 84.5703 29.1406 84.6484 28.7969L84.6016 27.4844V26.8047L84.5078 26.3359L84.5781 25.3516C84.3438 23.8984 84.2266 23.1016 84.2266 22.9609C84.2266 22.7422 84.2891 22.5156 84.4141 22.2812C84.4766 22.1562 84.5156 21.9609 84.5312 21.6953C84.6875 21.5547 84.7656 21.4219 84.7656 21.2969V21.25V21.1562L84.8594 20.5469L84.1797 20.6172C84.1797 20.2891 84.125 19.9141 84.0156 19.4922L83.9219 18.8594C83.7656 17.9688 83.6875 17.2812 83.6875 16.7969C83.6875 16.4688 83.7344 16.1094 83.8281 15.7188C83.6562 15.7656 83.3203 15.7969 82.8203 15.8125L81.6016 16.0703C81.5547 16.0703 81.4609 16.0469 81.3203 16C81.5547 15.375 81.6875 15.0625 81.7188 15.0625C82.0625 14.875 82.3047 14.7187 82.4453 14.5938V14.4766C82.7578 14.4141 82.9609 14.3672 83.0547 14.3359C83.4453 14.2266 83.6875 14.1719 83.7812 14.1719C83.8125 14.1719 84.0312 14.2109 84.4375 14.2891C84.5625 14.3203 84.6875 14.3359 84.8125 14.3359C85.0156 14.3359 85.5 14.1641 86.2656 13.8203C86.3281 13.8047 86.6719 13.7969 87.2969 13.7969C87.4219 13.7969 87.9609 13.7344 88.9141 13.6094C88.9922 13.5937 89.0469 13.5859 89.0781 13.5859C89.2969 13.5859 89.6562 13.6562 90.1562 13.7969C90.4062 13.875 90.6406 13.9141 90.8594 13.9141C90.9844 13.9141 91.2812 13.875 91.75 13.7969C91.9688 14.1875 92.1562 14.4062 92.3125 14.4531C92.4531 14.4844 92.7188 14.5 93.1094 14.5L93.2734 14.1953C93.6641 14.1016 94.0078 13.9609 94.3047 13.7734C95.0859 13.8672 95.7891 13.9219 96.4141 13.9375C97.2109 13.9687 98.1484 14.0859 99.2266 14.2891H100.094L101.547 14.4531C101.906 14.4688 102.117 14.4844 102.18 14.5C102.352 14.5469 102.562 14.6875 102.812 14.9219C103.109 14.875 103.328 14.8516 103.469 14.8516C103.781 14.8516 104.773 15.1719 106.445 15.8125C107.211 16.0469 107.648 16.2266 107.758 16.3516C108.07 16.7109 108.227 17.1953 108.227 17.8047C108.227 18.5391 107.812 19.5156 106.984 20.7344L106.328 21.7891C105.453 22.5547 104.883 23.1172 104.617 23.4766H103.609L103.516 23.5469V24.2734C103.188 24.4609 102.977 24.5781 102.883 24.625C102.086 25.0938 101.398 25.4219 100.82 25.6094L99.9766 26.0078C99.3672 26.1172 99 26.1953 98.875 26.2422C98.75 26.3047 98.6016 26.4062 98.4297 26.5469C98.7422 26.7031 98.9844 26.7969 99.1562 26.8281C99.1875 26.8438 99.7109 26.8828 100.727 26.9453C101.164 26.9766 101.695 27.1016 102.32 27.3203C103.195 27.6172 103.859 27.8203 104.312 27.9297C104.656 27.9922 104.992 28.1172 105.32 28.3047C105.258 28.5547 105.227 28.7734 105.227 28.9609C105.227 29.1953 105.438 29.4141 105.859 29.6172C105.984 29.4766 106.18 29.1094 106.445 28.5156C106.805 28.5312 107.188 28.6172 107.594 28.7734C108.344 29.0703 108.852 29.2734 109.117 29.3828C109.289 29.4141 109.438 29.6328 109.562 30.0391L110.195 30.3203L110.266 30.5781L110.617 30.4141L110.852 30.6719C111.055 30.4688 111.25 30.3672 111.438 30.3672C111.797 30.3672 112.32 30.5859 113.008 31.0234C114.242 31.8203 115.125 32.4062 115.656 32.7812C115.906 32.9688 116.211 33.2891 116.57 33.7422C116.508 33.8828 116.477 33.9844 116.477 34.0469C116.477 34.1562 116.539 34.3047 116.664 34.4922C116.852 34.3047 117.008 34.2109 117.133 34.2109C117.195 34.2109 117.867 34.6797 119.148 35.6172L119.453 36.0625C119.766 36.2344 119.969 36.3516 120.062 36.4141C120.109 36.4609 120.312 36.7344 120.672 37.2344C121.141 37.7969 121.461 38.2344 121.633 38.5469C121.242 38.875 121.047 39.1875 121.047 39.4844C121.047 39.5625 121.055 39.6641 121.07 39.7891L121.867 39.6719C122.18 40.0938 122.414 40.4844 122.57 40.8438C122.648 41.0469 122.812 41.6406 123.062 42.625C123.406 43.375 123.586 43.9062 123.602 44.2188V44.2422L123.531 45.1094V46.0234C123.516 46.3359 123.234 46.7812 122.688 47.3594C122.703 47.4844 122.82 47.6016 123.039 47.7109C123.023 47.8984 123.016 48.0625 123.016 48.2031C123.016 48.2812 123.023 48.3594 123.039 48.4375C123.07 48.6875 123.086 48.8516 123.086 48.9297C123.086 49.0234 122.594 49.7422 121.609 51.0859L121.094 51.4609L120.555 51.9531C120.148 52.2188 119.906 52.3828 119.828 52.4453C119.781 52.5078 119.641 52.75 119.406 53.1719C119 53.7188 118.18 54.2344 116.945 54.7188L116.641 54.4375C116.172 54.4844 115.844 54.5469 115.656 54.625C115.469 54.7188 115.25 54.9531 115 55.3281C115.328 55.3594 115.492 55.4922 115.492 55.7266C115.492 55.8203 115.445 55.9297 115.352 56.0547C115.227 56.2266 114.617 56.4141 113.523 56.6172C113.195 56.6797 112.484 56.9609 111.391 57.4609C111.156 57.5547 110.938 57.6406 110.734 57.7188C110.094 57.9531 109.719 58.1016 109.609 58.1641C109.422 58.2578 109.289 58.3047 109.211 58.3047C109.117 58.3047 108.969 58.2344 108.766 58.0938L108.062 58.3281L107.852 58.6797C107.539 58.7422 107.336 58.7812 107.242 58.7969C106.773 58.875 106.461 58.9531 106.305 59.0312C105.898 59.2656 105.695 59.3828 105.695 59.3828C105.086 59.2109 104.75 59.125 104.688 59.125C104.609 59.125 104.445 59.2422 104.195 59.4766C104.117 59.5703 103.945 59.6328 103.68 59.6641C103.023 59.7734 102.516 59.9297 102.156 60.1328L101.57 59.5938H101.43C101.242 59.5781 101.047 59.5391 100.844 59.4766L100.375 60.1328L95.7812 60.2734L94.7734 60.0156L94.9375 59.3125L94.2812 59.1719C94.1094 59.375 93.875 59.5234 93.5781 59.6172C93.0781 59.7734 92.7891 59.8516 92.7109 59.8516C92.6953 59.8516 92.1094 59.7188 90.9531 59.4531L90.5547 59.2422L89.7578 59.2891C89.3828 59.1328 89.0391 59.0469 88.7266 59.0312C88.5234 59.0156 88.1094 58.9844 87.4844 58.9375L86.8516 59.0078L85.9375 58.9375L83.8047 58.8438L83.6875 58.8203C82.9688 58.9141 82.5391 58.9609 82.3984 58.9609C81.5859 58.9609 81.1797 58.7812 81.1797 58.4219C81.1797 58.3594 81.2188 58.2969 81.2969 58.2344C81.5938 57.9531 81.8984 57.75 82.2109 57.625L84.0156 56.9219C84.1719 56.8594 84.3281 56.6953 84.4844 56.4297C84.6094 56.1953 84.6719 56.0234 84.6719 55.9141L84.625 55.2578L86.6875 54.6719L84.9766 54.2031C84.7266 54.1406 84.6016 53.9531 84.6016 53.6406C84.6016 53.5625 84.7031 53.3281 84.9062 52.9375L84.9297 51.6016V51.2266C84.9297 51.0859 84.7969 50.7344 84.5312 50.1719L86.7812 49.2109L84.5781 48.5078C84.7656 48.2891 84.8672 48.1641 84.8828 48.1328C84.9297 48.0859 84.9688 47.9062 85 47.5938C85 47.4688 85.0469 47.2422 85.1406 46.9141ZM86.9922 20.6641H87.0859L87.2266 20.5938C87.3828 20.9062 87.5859 21.1719 87.8359 21.3906V25.3281L87.7188 25.9844C88.1094 26.0781 88.3672 26.1406 88.4922 26.1719C88.6172 26.2031 88.7109 26.2188 88.7734 26.2188L89.3125 26.1719H89.3359C89.3516 26.1719 89.625 26.2109 90.1562 26.2891C90.8125 26.3203 91.4844 26.3672 92.1719 26.4297C92.1094 26.6797 92.0781 26.8828 92.0781 27.0391C92.0781 27.5391 92.1953 27.7891 92.4297 27.7891C92.5703 27.7891 92.9297 27.3984 93.5078 26.6172V26.2656L97.7734 25.3984C97.9609 25.3516 98.3047 25.1641 98.8047 24.8359L99.7656 24.5078L100.586 23.9453C101.742 23.2734 102.523 22.75 102.93 22.375C103.523 21.7969 103.836 21.4531 103.867 21.3438L104.289 20.1719C104.539 19.5156 104.664 19.1484 104.664 19.0703C104.664 18.8828 104.523 18.6641 104.242 18.4141L104.547 17.7109C104.406 17.6484 104.305 17.6172 104.242 17.6172C104.211 17.6172 103.961 17.7109 103.492 17.8984L102.461 16.7734C102.305 16.7891 102.188 16.7969 102.109 16.7969C101.906 16.7969 101.609 16.75 101.219 16.6562C101.062 16.4062 100.969 16.2734 100.938 16.2578L98.5938 15.8125L97.7266 15.5312L96.9766 15.6484L96.5312 15.6016H95.8984L95.0312 15.3906L94.1172 15.3438L93.3203 15.2969L91.3281 15.5781L89.5469 15.7422C89.0625 15.8516 88.6641 15.9062 88.3516 15.9062C88.2578 15.9062 88.0703 15.9062 87.7891 15.9062C87.6328 16.25 87.5469 16.4453 87.5312 16.4922L87.3672 19.2109C87.3516 19.4609 87.1484 19.7422 86.7578 20.0547L86.8047 20.125C86.8984 20.2812 86.9609 20.4609 86.9922 20.6641ZM87.2969 50.3359L87.5078 51.1094L88.2344 50.9922C88.4219 51.4297 88.5156 51.8125 88.5156 52.1406V52.2578C88.5156 52.4453 88.5 52.6641 88.4688 52.9141C88.4219 53.1484 88.3984 53.2734 88.3984 53.2891C88.6172 54.4453 88.7266 55.0547 88.7266 55.1172C88.7266 55.4453 88.5391 55.7969 88.1641 56.1719C88.0078 56.125 87.8672 56.1016 87.7422 56.1016C87.6484 56.1016 87.5391 56.1797 87.4141 56.3359C87.7891 56.5859 88.2188 56.75 88.7031 56.8281C89.125 56.875 89.5078 56.9922 89.8516 57.1797L89.9453 57.6484C90.2109 57.6016 90.4375 57.4531 90.625 57.2031C91.1562 57.4531 91.75 57.6406 92.4062 57.7656L93.2031 58.0938L93.9297 58.1875C95.8359 58.4688 97.3281 58.6094 98.4062 58.6094C99.3125 58.6094 100.586 58.4375 102.227 58.0938L102.695 58.4688C102.898 58.2188 103.039 58.0859 103.117 58.0703L104.148 57.9297C104.32 57.9141 104.578 57.7422 104.922 57.4141C105.5 57.3984 105.867 57.3672 106.023 57.3203L107.336 56.9922C108.023 56.8516 108.625 56.6484 109.141 56.3828C109.453 56.2266 109.688 56.1484 109.844 56.1484C109.906 56.1484 110.031 56.1797 110.219 56.2422C110.359 56.0703 110.562 55.9375 110.828 55.8438C112.594 55.0781 113.844 54.3594 114.578 53.6875C114.734 53.5625 115.422 53.1719 116.641 52.5156C116.719 52.4688 116.883 52.2109 117.133 51.7422C117.492 51.3047 117.727 51.0234 117.836 50.8984C118.008 50.7109 118.383 50.5156 118.961 50.3125L119.008 49.8203C120.445 49.5859 121.164 49.4141 121.164 49.3047C121.164 49.1953 120.422 49.0547 118.938 48.8828C119.172 48.4297 119.328 48.125 119.406 47.9688C119.422 47.8906 119.516 47.4688 119.688 46.7031C119.781 46.4375 119.836 46.2031 119.852 46L119.758 45.9062L120.18 45.5781C120.008 45.3125 119.922 45.1406 119.922 45.0625V43.9141L119.453 43.0703L119.477 42.3906C119.477 41.9219 118.992 41.0625 118.023 39.8125C117.648 39.3125 116.883 38.4922 115.727 37.3516C115.758 37.1797 115.773 37.0312 115.773 36.9062C115.773 36.7812 115.719 36.6641 115.609 36.5547C115.453 36.4141 115.352 36.3438 115.305 36.3438H115.047C114.734 36.2031 114.43 36.0547 114.133 35.8984C113.539 35.5703 113.18 35.3672 113.055 35.2891C112.961 35.2266 112.844 35.0703 112.703 34.8203C112.688 34.8047 112.633 34.7656 112.539 34.7031C112.398 34.625 112.258 34.5312 112.117 34.4219C111.805 34.1875 111.484 34.0234 111.156 33.9297L110.664 33.625C110.398 33.4844 110.242 33.3906 110.195 33.3438C110.164 33.3125 110.031 33.0312 109.797 32.5C109.766 32.4375 109.703 32.4062 109.609 32.4062C109.562 32.4062 109.289 32.5156 108.789 32.7344C108.742 32.75 108.703 32.7578 108.672 32.7578C108.469 32.7578 108.242 32.6875 107.992 32.5469C107.68 32.3438 107.305 32.1641 106.867 32.0078L106.398 31.7734L104.289 31.1406L102.836 30.3672C102.398 30.1953 102.055 30.0078 101.805 29.8047C101.273 30.0547 100.961 30.1797 100.867 30.1797C100.867 30.1797 100.43 30.0391 99.5547 29.7578L98.7109 29.4297L97.75 29.2891L96.9766 29.1016L96.5312 29.0312L95.6641 28.8438C94.3359 28.7188 93.6484 28.6562 93.6016 28.6562L92.3594 28.7031L90.4375 28.6328C89.7344 28.6328 89.0234 28.9609 88.3047 29.6172C88.3516 29.9922 88.4531 30.5703 88.6094 31.3516C88.625 31.4141 88.6328 31.4844 88.6328 31.5625C88.6328 31.7344 88.5625 32.0234 88.4219 32.4297H88.375C88 32.4297 87.7422 32.4844 87.6016 32.5938C87.6797 33.1406 87.7344 33.4609 87.7656 33.5547C87.7969 33.6328 87.9609 33.8359 88.2578 34.1641C88.1953 34.3984 88.1562 34.6562 88.1406 34.9375V34.9844C88.1406 35.3125 88.1406 35.5312 88.1406 35.6406C88.1406 35.75 88.1406 35.8125 88.1406 35.8281C88.1406 36 88.1953 36.4219 88.3047 37.0938C88.3359 37.3594 88.3516 37.6094 88.3516 37.8438C88.3516 38.0469 88.3359 38.3359 88.3047 38.7109L88.1875 40.0938L88.1406 40.5859L88.375 41.4766L88.4219 42.625C88.5312 43.2656 88.5859 43.6875 88.5859 43.8906C88.5859 44.1875 88.5156 44.6953 88.375 45.4141H88L88.1172 46.5859C88.5234 46.8984 88.7266 47.2109 88.7266 47.5234L88.7031 49.0938C88.7031 49.2344 88.7109 49.4609 88.7266 49.7734L88.5859 49.9141H88.4688L88.375 50.0078V50.1484C88.1406 50.1328 87.9453 50.125 87.7891 50.125C87.5547 50.125 87.3906 50.1953 87.2969 50.3359ZM128.5 35.8516C128.5 35.6328 128.734 35.3359 129.203 34.9609C130.234 34.1641 131.125 33.6406 131.875 33.3906L132.578 34.1172C132.422 34.5078 132.297 35.0547 132.203 35.7578C132.109 36.3359 132.062 36.6875 132.062 36.8125V37.6797L131.664 38.2422C131.664 38.6328 131.836 39.0078 132.18 39.3672C132.086 39.5391 132.039 39.6406 132.039 39.6719L132.086 40.8203C132.086 40.8203 132.078 40.9062 132.062 41.0781C132.047 41.1875 132.039 41.3672 132.039 41.6172L131.922 46.0938C131.938 46.3281 132.039 46.8672 132.227 47.7109L132.273 48.6953C132.367 49.1641 132.414 49.4375 132.414 49.5156C132.414 49.8438 132.273 50.1406 131.992 50.4062C131.914 50.4844 131.617 50.6875 131.102 51.0156C130.32 51.625 129.875 51.9531 129.766 52C129.609 52.0625 129.469 52.0938 129.344 52.0938C129.156 52.0938 128.969 52 128.781 51.8125C128.844 51.4219 128.883 51.1641 128.898 51.0391C128.914 50.8516 129 50.5078 129.156 50.0078L129.18 48.8594L129.344 46.5625L129.32 46.1406C129.336 45.8906 129.461 45.7656 129.695 45.7656C129.758 45.7656 129.836 45.7734 129.93 45.7891C130.008 45.5391 130.047 45.3672 130.047 45.2734C130.047 45.1484 130 44.9062 129.906 44.5469C129.859 44.3906 129.812 44.1719 129.766 43.8906L129.367 43.5859C129.414 43.2422 129.438 42.9844 129.438 42.8125C129.438 42.7344 129.43 42.6172 129.414 42.4609C129.414 42.3359 129.414 42.2266 129.414 42.1328C129.414 41.9297 129.492 41.7031 129.648 41.4531C129.492 41.2656 129.414 41.0703 129.414 40.8672V40.6797V40.5156L129.367 39.9766C130.383 39.7891 130.891 39.625 130.891 39.4844C130.891 39.4688 130.875 39.4453 130.844 39.4141C130.609 39.2109 130.32 39.1094 129.977 39.1094C129.727 39.1094 129.422 39.125 129.062 39.1562C129.109 38.9219 129.133 38.7656 129.133 38.6875C129.133 38.6562 129.07 37.8828 128.945 36.3672C128.93 36.1797 128.781 36.0078 128.5 35.8516ZM128.922 26.4062V26.3828C128.891 25.8359 129.289 25.2422 130.117 24.6016C130.305 24.4609 130.508 24.2578 130.727 23.9922C130.742 23.9766 130.898 23.8516 131.195 23.6172C131.773 22.7578 132.133 22.2812 132.273 22.1875C132.508 22.0156 132.703 21.9297 132.859 21.9297C132.922 21.9297 133.102 22.0469 133.398 22.2812C133.695 22.5 133.844 22.7656 133.844 23.0781C133.844 23.3281 133.703 23.5469 133.422 23.7344C132.703 24.25 132.016 24.8125 131.359 25.4219L130.703 25.8438L129.883 26.4062C129.445 26.6406 129.195 26.7578 129.133 26.7578C128.992 26.7578 128.922 26.6406 128.922 26.4062ZM137.805 35.3594C137.93 34.75 138.141 34.4453 138.438 34.4453H138.461L139.609 34.5156H139.656C140.531 34.3906 141.031 34.3203 141.156 34.3047C141.156 34.0234 141.156 33.8359 141.156 33.7422C141.156 32.2734 141.125 31.0703 141.062 30.1328C141.031 29.7266 140.938 29.3594 140.781 29.0312L140.547 28.5391C140.484 28.4141 140.453 28.2812 140.453 28.1406C140.453 27.9062 140.641 27.625 141.016 27.2969C141.594 26.7656 142.328 26.4141 143.219 26.2422C143.422 25.8203 143.641 25.6094 143.875 25.6094C143.969 25.6094 144.047 25.6484 144.109 25.7266C144.328 25.9609 144.438 26.2656 144.438 26.6406C144.438 26.6562 144.367 27.8906 144.227 30.3438C144.039 30.9844 143.922 31.3594 143.875 31.4688C143.812 31.6875 143.633 31.9141 143.336 32.1484C143.336 32.4609 143.383 32.7656 143.477 33.0625H144.016L143.875 34.2578C144.266 34.2891 145.078 34.4766 146.312 34.8203C146.391 34.8359 146.656 34.8438 147.109 34.8438C147.391 34.8438 147.852 34.75 148.492 34.5625L150.039 34.4219C150.836 34.1094 151.305 33.9531 151.445 33.9531C151.648 33.9531 151.898 33.9766 152.195 34.0234C152.164 34.4609 152.117 34.7734 152.055 34.9609C151.992 35.1953 151.5 35.5938 150.578 36.1562C150.359 36.2812 150.203 36.3984 150.109 36.5078C149.875 36.7891 149.75 36.9297 149.734 36.9297C149.656 36.9922 149.469 37.0234 149.172 37.0234C148.938 37.0234 148.766 36.9922 148.656 36.9297L147.695 36.4141L147.109 36.2734L146.406 35.7578L145.211 36.6719L144.18 36.5312C144.102 36.5312 143.945 36.6094 143.711 36.7656C143.836 37.5156 143.898 38.1484 143.898 38.6641C143.898 38.9141 143.891 39.2812 143.875 39.7656C143.297 39.8594 143.008 40.0938 143.008 40.4688C143.008 40.6094 143.039 40.7812 143.102 40.9844C143.445 41.0156 143.734 41.0625 143.969 41.125L143.922 44.0547C143.688 43.9922 143.492 43.9609 143.336 43.9609C143.055 43.9609 142.914 44.0781 142.914 44.3125C142.914 44.5 142.984 44.7266 143.125 44.9922C143.344 44.8516 143.531 44.7812 143.688 44.7812C143.922 44.7812 144.039 44.9297 144.039 45.2266L143.969 46.1641V46.2109C144 46.8516 144.023 47.3125 144.039 47.5938C144.07 47.8906 144.164 48.1875 144.32 48.4844L144.602 48.9766C144.633 49.0391 144.648 49.1328 144.648 49.2578C144.648 49.3984 144.633 49.5781 144.602 49.7969C145.086 50.0781 145.625 50.2188 146.219 50.2188C146.719 50.2188 147.219 50.0938 147.719 49.8438C148.125 49.625 148.344 49.5 148.375 49.4688L149.664 48.2969C150.305 47.7656 150.695 47.5 150.836 47.5C150.977 47.5 151.172 47.5703 151.422 47.7109C151.375 48.0078 151.344 48.2109 151.328 48.3203C151.219 49.1328 151.109 49.6094 151 49.75C150.891 49.875 150.414 50.0703 149.57 50.3359C148.93 50.6641 147.961 51.0469 146.664 51.4844L145.867 51.7422C145.336 52.0391 145.031 52.1875 144.953 52.1875C144.812 52.1875 144.656 52.0469 144.484 51.7656L144.062 51.6484L143.805 52.2344C143.586 52.2656 143.398 52.2812 143.242 52.2812C142.836 52.2812 142.352 52.0156 141.789 51.4844C141.539 51.2344 141.336 50.9766 141.18 50.7109C141.164 50.6953 141.102 50.4922 140.992 50.1016C140.82 49.5859 140.734 49.2891 140.734 49.2109C140.734 49.0703 140.75 48.8438 140.781 48.5312C140.812 48.2812 140.828 47.7578 140.828 46.9609C140.844 46.4453 140.984 46.0547 141.25 45.7891C141.156 45.4922 141.109 45.1328 141.109 44.7109C141.031 43.9922 140.984 42.625 140.969 40.6094C141.344 40.375 141.531 40.1484 141.531 39.9297C141.531 39.8047 141.516 39.6562 141.484 39.4844L140.805 39.3203L140.758 39.1094V39.0859C140.758 39.0078 140.781 38.8438 140.828 38.5938C140.922 38.1875 140.969 37.4844 140.969 36.4844C140.328 36.3438 139.859 36.2734 139.562 36.2734C139.469 36.2734 139.062 36.3203 138.344 36.4141L137.852 36.4609C137.414 36.6016 137.18 36.6719 137.148 36.6719C136.93 36.6719 136.82 36.5703 136.82 36.3672C136.82 36.0547 137.148 35.7188 137.805 35.3594ZM157.891 45.5547C158.312 45.3203 158.523 45.0469 158.523 44.7344C158.523 44.5781 158.391 44.4375 158.125 44.3125C158.094 43.6406 158.078 43.0547 158.078 42.5547C158.078 42.2734 158.094 41.9766 158.125 41.6641C158.234 40.7891 158.289 40.2891 158.289 40.1641C158.289 40.0703 158.266 39.8828 158.219 39.6016L158.852 39.4375C158.867 39.3438 158.875 39.2656 158.875 39.2031C158.875 39.1406 158.805 38.9844 158.664 38.7344C158.523 38.4531 158.414 38.1719 158.336 37.8906C158.586 37.7656 158.75 37.6406 158.828 37.5156C158.906 37.375 158.961 37.1328 158.992 36.7891C158.742 36.4609 158.578 36.2188 158.5 36.0625L159.859 35.125L159.789 35.1016L158.383 34.6094L159.016 32.7812C158.906 32.2656 158.609 32.0234 158.125 32.0547C158.312 31.3516 158.406 30.9219 158.406 30.7656C158.406 30.7344 158.383 30.5625 158.336 30.25L158.312 29.5234C158.266 28.8984 158.242 28.3828 158.242 27.9766C158.242 27.5703 158.367 27.2266 158.617 26.9453C158.273 26.4141 158.102 25.9453 158.102 25.5391C158.102 25.3203 158.172 25.0547 158.312 24.7422C158.094 24.4766 157.984 24.2734 157.984 24.1328C157.984 24.0547 158.008 23.9297 158.055 23.7578C158.102 23.6328 158.133 23.2109 158.148 22.4922C158.148 22.3984 158.164 22.1953 158.195 21.8828H157.891C157.922 21.5859 157.938 21 157.938 20.125C158.141 19.5312 158.242 19.1953 158.242 19.1172C158.242 18.9453 158.109 18.5469 157.844 17.9219C157.531 17.9062 157.289 17.8281 157.117 17.6875C157.133 17.4844 157.227 17.2812 157.398 17.0781C157.836 16.5156 158.375 16.0469 159.016 15.6719C159.875 15.2031 160.453 14.8125 160.75 14.5H161.148C161.758 15.25 162.133 15.8125 162.273 16.1875C162.414 16.6094 162.523 16.8516 162.602 16.9141L162.977 17.2422C163.008 17.2891 163.039 17.5391 163.07 17.9922C163.227 18.5078 163.352 18.9375 163.445 19.2812C162.539 19.3906 162.086 19.5625 162.086 19.7969C162.086 20.0469 162.359 20.2812 162.906 20.5C163.25 20.2969 163.57 20.1562 163.867 20.0781L163.938 20.1484C163.984 20.9141 164.133 21.5156 164.383 21.9531C164.586 22.2656 164.688 22.5 164.688 22.6562C164.688 22.6562 164.688 22.6641 164.688 22.6797C164.641 22.9766 164.617 23.2266 164.617 23.4297C164.617 23.7266 164.867 24 165.367 24.25C165.414 24.5625 165.492 24.8594 165.602 25.1406C165.633 25.2188 165.648 25.3047 165.648 25.3984C165.648 25.5547 165.633 25.7266 165.602 25.9141C166.148 26.2578 166.422 26.5547 166.422 26.8047C166.422 27.0703 166.148 27.375 165.602 27.7188L165.93 28.8672L166.117 28.9141C166.445 28.4766 166.703 28.2578 166.891 28.2578C167.031 28.2578 167.211 28.2812 167.43 28.3281C167.43 28.3281 167.453 28.3984 167.5 28.5391C167.516 28.5703 167.523 28.6797 167.523 28.8672C167.523 28.8984 167.523 28.9375 167.523 28.9844C167.508 29.0469 167.5 29.0781 167.5 29.0781C167.5 29.2188 167.562 29.3906 167.688 29.5938C168.328 30.7031 168.688 31.4609 168.766 31.8672C168.828 32.1641 168.922 32.5078 169.047 32.8984C169.062 32.9453 169.07 32.9922 169.07 33.0391C169.07 33.2109 169.039 33.4141 168.977 33.6484H168.625C168.609 33.7109 168.602 33.75 168.602 33.7656C168.602 33.9062 168.68 34.0938 168.836 34.3281L169.188 34.2109C169.328 34.2109 169.43 34.2656 169.492 34.375C169.555 34.4688 169.625 34.7578 169.703 35.2422L170.289 35.4531C170.367 35.8438 170.531 36.2344 170.781 36.625C171.125 37.1719 171.484 37.9766 171.859 39.0391C171.875 39.0859 172.008 39.3203 172.258 39.7422C172.523 40.2422 172.719 40.8203 172.844 41.4766L172.914 41.7812L172.844 42.3906C172.844 42.4531 172.984 42.6172 173.266 42.8828C173.375 42.9766 173.5 43.1328 173.641 43.3516L174.203 43.4922C174.328 44.1641 174.461 44.6328 174.602 44.8984L175.047 45.0625C175.219 45.5938 175.562 46.3125 176.078 47.2188L177.133 49.5625L177.602 50.2656C177.883 50.8125 178.078 51.125 178.188 51.2031C178.234 51.2344 178.336 51.25 178.492 51.25C178.727 50.9375 178.992 50.5 179.289 49.9375L180.016 48.6016L180.273 48.0859L180.672 47.3828L180.859 46.6328C181.375 45.7891 181.648 45.3359 181.68 45.2734C181.742 45.1953 181.977 45.0234 182.383 44.7578C182.586 44.6172 182.688 44.4766 182.688 44.3359C182.688 44.2891 182.68 44.2422 182.664 44.1953C182.492 43.6172 182.406 43.3203 182.406 43.3047C182.406 43.3047 182.547 43.1094 182.828 42.7188C182.922 42.5938 183.031 42.3672 183.156 42.0391L183.766 42.1094C183.922 41.9062 184 41.75 184 41.6406C184 41.5156 183.984 41.3516 183.953 41.1484C183.938 40.9922 183.93 40.8516 183.93 40.7266C183.93 40.4297 183.969 40.1875 184.047 40L185.148 37.1875C185.367 36.3281 185.516 35.8359 185.594 35.7109C185.719 35.5234 185.961 35.2969 186.32 35.0312C186.211 34.6719 186.156 34.4297 186.156 34.3047C186.156 34.1016 186.5 33.2422 187.188 31.7266L187.656 30.2266C188.109 29.3047 188.359 28.7891 188.406 28.6797C188.516 28.4766 188.789 28.3594 189.227 28.3281C189.07 28.0156 188.961 27.6562 188.898 27.25L188.875 27.0156L189.086 26.125L189.062 25.6562L191.477 22.0234C191.539 21.4297 191.594 21.0938 191.641 21.0156C191.984 20.4688 192.219 20.1406 192.344 20.0312C192.375 20 192.742 19.75 193.445 19.2812L193.68 18.9766L193.727 18.9297C193.664 18.7422 192.977 18.5859 191.664 18.4609H191.078L190.328 17.4062C190.578 16.875 190.703 16.6094 190.703 16.6094C190.719 16.5938 190.859 16.5234 191.125 16.3984L191.898 15.9062L192.625 15.625C193.234 15.2656 193.656 15.0469 193.891 14.9688C194.078 14.9062 194.531 14.8047 195.25 14.6641C195.375 15.2734 195.438 15.8203 195.438 16.3047L195.531 16.8906L195.555 17.2422L195.648 17.875L195.555 19.2109V20.0078L195.438 20.8281L195.484 21.5078L195.461 21.8594C195.461 21.9375 195.516 22.0781 195.625 22.2812C195.438 22.25 195.266 22.2344 195.109 22.2344C194.859 22.2344 194.734 22.3438 194.734 22.5625C194.734 22.7969 194.992 22.9609 195.508 23.0547L195.156 23.8281L195.25 23.9219H195.531L195.695 24.0625C195.695 24.4375 195.688 24.6797 195.672 24.7891C195.656 25.1641 195.648 25.4141 195.648 25.5391C195.648 25.5859 195.711 26.2031 195.836 27.3906C195.836 27.4219 195.836 27.4609 195.836 27.5078C195.836 27.6953 195.664 28.0625 195.32 28.6094C195.289 28.6719 195.273 28.9219 195.273 29.3594C195.273 29.5156 195.328 29.6797 195.438 29.8516L196.07 29.7812L196.328 30.0391C196.203 30.4141 196.141 30.8359 196.141 31.3047C196.141 31.5703 196.188 32.0469 196.281 32.7344L196.422 36.9766C196.422 37.1016 196.438 37.2812 196.469 37.5156C196.516 37.9062 196.539 38.2266 196.539 38.4766C196.539 38.6016 196.508 38.75 196.445 38.9219L195.812 38.875C195.812 38.9688 195.812 39.0469 195.812 39.1094C195.812 39.2812 195.734 39.5234 195.578 39.8359C195.891 40.1328 196.203 40.3047 196.516 40.3516C196.625 40.6484 196.688 40.9844 196.703 41.3594L196.984 43.1641L197.148 44.2422L197.312 44.5469C197.109 45.2188 197 45.5859 196.984 45.6484C196.953 45.8047 196.906 46.0078 196.844 46.2578L197.711 46.9141C197.727 47.2266 197.734 47.5 197.734 47.7344C197.734 47.8594 197.727 47.9844 197.711 48.1094C197.648 48.4531 197.617 48.6328 197.617 48.6484C197.617 48.8203 197.695 49.0703 197.852 49.3984L197.125 49.5391L196.82 50.4766C196.977 50.6016 197.18 50.7109 197.43 50.8047C197.648 50.8672 197.805 51.1406 197.898 51.625C197.977 52.1094 198.023 52.3516 198.039 52.3516L198.32 52.8906C198.352 53.0312 198.477 53.5859 198.695 54.5547C198.711 55.2734 198.781 56.0391 198.906 56.8516C198.688 57.0703 198.328 57.4453 197.828 57.9766C196.922 58.6484 196.023 58.9688 195.133 58.9375C195.055 58.9375 194.891 58.9922 194.641 59.1016C194.484 59.1641 194.352 59.1953 194.242 59.1953C194.164 59.1953 194.039 59.1406 193.867 59.0312C194.055 58.5312 194.172 58 194.219 57.4375L194.289 56.9219C194.148 56.4531 194.078 56.2031 194.078 56.1719C194.078 55.9219 194.289 55.6953 194.711 55.4922L194.664 54.8828C194.195 54.4609 193.961 54.0938 193.961 53.7812C193.961 53.625 193.984 53.4609 194.031 53.2891C194.312 52.2266 194.453 51.6719 194.453 51.625L193.938 50.1016V50.0547L194.031 48.2266V48.2031C194.047 47.8906 193.969 47.2812 193.797 46.375C193.734 46.0781 193.703 45.8594 193.703 45.7188L194.242 45.6719C194.18 45.1406 194.133 44.8281 194.102 44.7344C194.07 44.6094 193.891 44.5156 193.562 44.4531C193.5 44.125 193.406 43.7266 193.281 43.2578C193.203 42.9609 193.164 42.4922 193.164 41.8516C193.164 41.7734 193.172 41.5078 193.188 41.0547V41.0312C193.188 40.9219 193.188 40.8359 193.188 40.7734C193.172 40.7266 193.164 40.7031 193.164 40.7031C193.352 40.1719 193.445 39.8906 193.445 39.8594C193.445 39.8281 193.398 39.6016 193.305 39.1797L193.188 38.6172L193 38.1953L192.836 35.7812L192.672 34.8672L192.836 32.8516L192.719 32.0781L194.43 31.4219L192.719 31C192.875 30.7344 192.953 30.5625 192.953 30.4844C192.953 29.9062 192.711 29.5391 192.227 29.3828C192.211 29.3516 192.203 29.3359 192.203 29.3359C192.203 29.0078 192.477 28.7969 193.023 28.7031L194.125 28.5156L192.273 27.4844L192.25 26.3125C192.234 26.1719 192.102 25.9688 191.852 25.7031H191.641C191.547 26.0156 191.477 26.2188 191.43 26.3125C191.18 26.9375 191.047 27.2578 191.031 27.2734C191 27.2734 190.984 27.5078 190.984 27.9766L190.398 28.4688C190.398 28.5781 190.398 28.6719 190.398 28.75C190.398 28.9375 190.219 29.3516 189.859 29.9922L189.555 30.8125L189.227 31.6094L188.969 32.4531L188.477 33.1562L188.336 33.9297L188.148 34.2812L188.031 35.1719L187.023 37.5391L186.555 38.9219C186.477 39.0156 186.312 39.1641 186.062 39.3672L185.969 40.0469L185.383 40.375C185.367 40.7344 185.242 41.3516 185.008 42.2266L184.375 42.5312C184.422 42.8125 184.445 43.0469 184.445 43.2344C184.445 43.9844 184.117 44.6094 183.461 45.1094C183.508 45.25 183.531 45.375 183.531 45.4844C183.531 45.5312 183.484 45.625 183.391 45.7656C183.328 45.8438 183.172 46.1484 182.922 46.6797L182.359 47.7344L181.75 49.3984L181.422 50.1484L181.117 50.8984L180.719 51.5312L180.461 52.0938C180.242 52.4375 180.078 52.8438 179.969 53.3125C179.391 54.7656 178.977 55.8672 178.727 56.6172C178.508 56.6172 178.344 56.6172 178.234 56.6172C178.156 56.6172 178.086 56.6172 178.023 56.6172C177.711 56.6328 177.531 56.6406 177.484 56.6406C177.312 56.6406 177.172 56.5781 177.062 56.4531C176.938 56.3125 176.625 55.6484 176.125 54.4609C176.047 54.3203 175.75 53.9219 175.234 53.2656C175.062 53.0312 174.93 52.6953 174.836 52.2578C174.758 51.9609 174.664 51.6406 174.555 51.2969L174.109 51.2266C173.953 50.8047 173.75 50.2031 173.5 49.4219C173.391 49.0625 173.039 48.4141 172.445 47.4766C172.227 47.1328 172.117 46.75 172.117 46.3281C172.117 46.2656 172.195 46.0156 172.352 45.5781C172.367 45.5469 172.375 45.5078 172.375 45.4609C172.375 45.3047 172.266 45.1016 172.047 44.8516L171.297 45.1094C171 44.4688 170.797 44.0547 170.688 43.8672C170.469 43.4922 170.305 43.1797 170.195 42.9297L169.984 42.5547L169.797 41.9219C169.422 41.25 169.164 40.6953 169.023 40.2578C168.82 40.1016 168.711 40.0078 168.695 39.9766C168.43 39.3359 168.164 38.6953 167.898 38.0547C167.273 36.9609 166.891 36.2188 166.75 35.8281L166.844 35.7578L167.195 35.6406C167.039 35.2812 166.93 35.0469 166.867 34.9375C166.68 34.5781 166.562 34.3281 166.516 34.1875C166.328 33.5156 166.188 33.1484 166.094 33.0859C166.016 33.0391 165.945 33.0156 165.883 33.0156C165.742 33.0156 165.578 33.0547 165.391 33.1328C164.562 31.5547 164.148 30.6016 164.148 30.2734C164.148 30.1484 164.156 29.9922 164.172 29.8047C163.891 29.4922 163.695 29.2812 163.586 29.1719C163.43 29 163.336 28.8281 163.305 28.6562C163.289 28.5938 163.273 28.3047 163.258 27.7891C162.992 27.4766 162.828 27.1406 162.766 26.7812C162.703 26.5 162.594 26.1953 162.438 25.8672L162.133 25.7969C161.711 24.7969 161.273 24.2969 160.82 24.2969C160.727 24.2969 160.625 24.3125 160.516 24.3438C160.641 24.7188 160.711 25.1406 160.727 25.6094L160.867 26.4766V27.5547C160.977 28.4141 161.031 28.8516 161.031 28.8672C161.031 28.9609 161.016 29.1172 160.984 29.3359C160.969 29.5078 160.961 29.6875 160.961 29.875C160.961 30.0312 160.992 30.5469 161.055 31.4219V31.4688L160.938 32.1719L160.609 32.4062L160.727 33.2031L160.398 33.3438V33.9297C160.914 33.9453 161.172 34.0859 161.172 34.3516C161.172 34.3516 161.164 34.5625 161.148 34.9844L161.102 35.4531V37.3984L161.031 38.2656L161.055 39.1562C161.055 39.2969 160.945 39.4844 160.727 39.7188L160.891 40.9844L160.539 41.125C160.477 41.3438 160.445 41.5391 160.445 41.7109C160.445 41.7578 160.57 42.1094 160.82 42.7656C160.82 42.7812 160.82 42.8047 160.82 42.8359C160.82 42.9453 160.797 43.1328 160.75 43.3984C160.703 43.6328 160.68 43.9219 160.68 44.2656C160.68 44.4531 160.688 44.6406 160.703 44.8281C160.719 45.2969 160.727 45.6328 160.727 45.8359C160.727 45.9766 160.664 46.3672 160.539 47.0078C160.445 47.5234 160.398 48.0625 160.398 48.625C160.398 49.0469 160.484 49.4609 160.656 49.8672C160.562 50.0547 160.414 50.2109 160.211 50.3359C159.555 50.7266 159.227 51.0625 159.227 51.3438C159.227 51.5312 159.359 51.7891 159.625 52.1172L160.094 51.5312H160.281L160.445 51.6953C160.398 51.8828 160.375 52.0391 160.375 52.1641C160.375 52.2891 160.461 52.5312 160.633 52.8906C160.648 52.9375 160.656 52.9609 160.656 52.9609C160.656 53.1797 160.32 53.4062 159.648 53.6406C159.023 53.8594 158.711 54.0938 158.711 54.3438C158.711 54.5469 158.953 54.7344 159.438 54.9062L160.727 55.3516C160.633 55.7109 160.586 55.9297 160.586 56.0078C160.586 56.1484 160.594 56.3047 160.609 56.4766L160.023 56.8516C160.086 57.0391 160.117 57.2031 160.117 57.3438C160.117 57.4219 160.094 57.4922 160.047 57.5547C160 57.6016 159.516 57.7734 158.594 58.0703L157.844 58.5156C156.844 58.8594 156.336 59.0312 156.32 59.0312C156.273 59.0312 156.18 59 156.039 58.9375C156.039 58.9062 156.039 58.8906 156.039 58.8906L156.016 58.6797V58.6562C156.016 58.5938 156.172 58.3828 156.484 58.0234C156.594 57.8828 156.922 57.625 157.469 57.25C157.844 57 158.07 56.7969 158.148 56.6406L158.523 55.9375L158.875 55.4688L157 54.3203C157 54.3203 157.062 54.2422 157.188 54.0859C157.406 53.8672 157.523 53.5078 157.539 53.0078C157.555 52.1172 157.562 51.6562 157.562 51.625L157.75 50.9219C157.781 50.8281 157.797 50.7109 157.797 50.5703C157.797 50.4766 157.758 50.2969 157.68 50.0312L157.844 49.4922L157.633 48.6719C157.93 47.5781 158.078 46.9766 158.078 46.8672C158.078 46.6328 158.016 46.1953 157.891 45.5547ZM209.219 43.5859C209.406 43.2891 209.586 43.0859 209.758 42.9766C209.883 42.8984 210.352 42.7734 211.164 42.6016C211.758 42.3047 212.156 42.125 212.359 42.0625C212.5 42.0312 212.969 41.9766 213.766 41.8984L214.516 41.6406L214.961 41.5938L215.383 41.5469H216.297L218.148 41.3125C218.695 41.2656 219.039 41.1953 219.18 41.1016C219.461 40.8984 219.602 40.6016 219.602 40.2109C219.602 40.1328 219.539 39.8828 219.414 39.4609L220.633 37.9375C220.633 37.9219 220.148 37.7656 219.18 37.4688C219.102 37.4375 218.867 37.4219 218.477 37.4219C217.805 36.5625 217.406 36.0859 217.281 35.9922C217.125 35.9297 216.531 35.8203 215.5 35.6641H214.75C214.406 35.5703 214.18 35.5234 214.07 35.5234C213.945 35.5234 213.766 35.5391 213.531 35.5703L213.086 35.0078C212.742 35.1328 212.477 35.3047 212.289 35.5234C212.133 35.6953 211.891 35.8438 211.562 35.9688C210.75 36.3125 210.078 36.6953 209.547 37.1172L209.219 37.3281C209.016 37.625 208.883 37.7891 208.82 37.8203C208.633 37.9297 208.414 37.9844 208.164 37.9844C208.07 37.9844 207.781 37.8984 207.297 37.7266C206.766 37.6016 206.438 37.5 206.312 37.4219C206.172 37.3281 205.992 37.1328 205.773 36.8359C206.039 36.6328 206.227 36.4844 206.336 36.3906C206.602 36.1562 206.781 36.0312 206.875 36.0156L207.977 35.7578L208.68 35.3828L210.18 34.9141L211.117 34.5156H212.078L213.133 34.2109L213.578 34.1875L214.398 34.0469C215.164 34.0625 215.648 34.0703 215.852 34.0703C216.07 34.0859 216.492 34.1953 217.117 34.3984L217.68 34.4688C218.289 34.5781 218.719 34.6562 218.969 34.7031C219.188 34.7188 219.469 34.8906 219.812 35.2188C219.547 35.4531 219.414 35.6484 219.414 35.8047C219.414 36.0234 219.508 36.1328 219.695 36.1328C219.82 36.1328 220 36.0703 220.234 35.9453C220.391 35.8828 220.609 35.8125 220.891 35.7344C221.094 35.9375 221.203 36.2031 221.219 36.5312L221.805 36.9531C221.836 37.125 221.852 37.2344 221.852 37.2812L221.781 38.1953C221.953 38.8828 222.125 39.3125 222.297 39.4844H222.391C222.438 39.8281 222.5 40.2031 222.578 40.6094C222.625 41.5156 222.656 42.1172 222.672 42.4141C222.312 42.6328 222.133 42.8438 222.133 43.0469C222.133 43.2812 222.344 43.4922 222.766 43.6797C222.781 43.8828 222.789 44.0547 222.789 44.1953C222.789 44.3359 222.758 44.6094 222.695 45.0156C222.68 45.1875 222.672 45.3594 222.672 45.5312C222.672 46.0469 222.758 46.6875 222.93 47.4531C222.648 47.7344 222.508 48.0156 222.508 48.2969C222.508 48.5312 222.641 48.8359 222.906 49.2109C222.938 49.2734 222.992 49.4219 223.07 49.6562C223.117 49.7656 223.203 49.9766 223.328 50.2891C223.156 50.4922 223.031 50.6875 222.953 50.875C222.828 50.9844 222.586 51.1094 222.227 51.25L221.336 51.6484L220.773 51.8125C220.195 52.0156 219.875 52.1172 219.812 52.1172C219.656 52.1172 219.484 52.0312 219.297 51.8594L219.648 50.2891C219.195 50.3984 218.539 50.6406 217.68 51.0156L217 51.1562C216.594 51.25 216.383 51.2969 216.367 51.2969L215.5 51.2031L214.633 51.6484L214.164 51.6953L212.266 52.0938L211.281 52.0234C210.797 52.1953 210.469 52.2812 210.297 52.2812C210.078 52.2812 209.469 52.1797 208.469 51.9766L207.484 51.8828L206.758 51.5781C206.211 51.375 205.805 51.1719 205.539 50.9688C205.305 50.7969 205.117 50.5 204.977 50.0781L204.438 49.8906C204.375 49.7344 204.305 49.4531 204.227 49.0469L203.992 48.0391V48.0156C203.977 47.875 204.078 47.6484 204.297 47.3359C204.469 47.1016 204.688 46.7031 204.953 46.1406C205.719 45.3906 206.227 44.9062 206.477 44.6875C206.695 44.5156 207.188 44.2734 207.953 43.9609C208.391 43.6797 208.664 43.5391 208.773 43.5391C208.898 43.5391 209.047 43.5547 209.219 43.5859ZM207.766 48.5547C207.641 48.7578 207.523 48.9688 207.414 49.1875C207.242 49.4688 207.164 49.6562 207.18 49.75L207.414 50.1953L208.07 49.6328C208.602 50.0078 208.969 50.2109 209.172 50.2422C209.75 50.3984 210.062 50.4844 210.109 50.5C210.203 50.5625 210.336 50.7266 210.508 50.9922C210.867 51.0391 211.109 51.0703 211.234 51.0859C211.359 51.1016 211.461 51.1094 211.539 51.1094C211.711 51.1094 211.922 51 212.172 50.7812C212.391 50.9375 212.578 51.0156 212.734 51.0156C212.766 51.0156 212.938 50.9141 213.25 50.7109L213.906 50.8516C213.906 50.8516 214.328 50.7031 215.172 50.4062L215.781 50.125L216.297 50.2188L217.188 49.8438L218.219 49.4453C218.484 49.0391 218.648 48.8047 218.711 48.7422C218.852 48.6016 219.125 48.4766 219.531 48.3672L219.672 47.6172C219.953 47.4609 220.125 47.2422 220.188 46.9609C219.969 46.8047 219.812 46.6406 219.719 46.4688C219.734 46.2031 219.742 46.0078 219.742 45.8828V45.5078C219.727 45.0859 219.711 44.7266 219.695 44.4297C219.68 44.3359 219.672 44.25 219.672 44.1719C219.672 43.9844 219.734 43.7109 219.859 43.3516C219.719 43.3359 219.539 43.2422 219.32 43.0703L218.312 43.0938L217.398 43.0469L216.695 43.0703H216.25C216.188 43.0703 215.953 42.9453 215.547 42.6953L215.031 42.8594C214.406 42.8594 213.945 42.9062 213.648 43C213.461 43.0781 213.305 43.1172 213.18 43.1172C213.148 43.1172 212.969 43.0703 212.641 42.9766C212.625 42.9766 212.609 42.9766 212.594 42.9766C212.516 42.9766 212.266 43.1172 211.844 43.3984C211.781 43.4453 211.375 43.6016 210.625 43.8672C209.625 44.3047 208.906 44.7188 208.469 45.1094C208.422 45.1562 208.25 45.3906 207.953 45.8125C207.859 45.9531 207.586 46.0859 207.133 46.2109C207.07 46.3203 207.039 46.4062 207.039 46.4688C207.039 46.5156 207.102 46.6094 207.227 46.75L207.391 48.0156C207.422 48.125 207.547 48.3047 207.766 48.5547ZM229.375 35.875C229.469 35.5938 229.617 35.3359 229.82 35.1016C229.977 34.9297 230.383 34.6875 231.039 34.375C231.711 33.9531 232.094 33.7422 232.188 33.7422C232.469 33.7422 232.68 33.8438 232.82 34.0469L232.914 34.4453L233.102 35.1719C233.055 35.3438 233.031 35.4766 233.031 35.5703C233.031 35.7109 233.117 35.875 233.289 36.0625C233.602 35.9688 234.023 35.7734 234.555 35.4766L235.539 35.1484L236.523 34.4922L237.156 34.2344C237.5 34.0625 237.688 33.9766 237.719 33.9766C237.719 33.9766 237.891 34.0078 238.234 34.0703C238.266 34.0703 238.289 34.0703 238.305 34.0703C238.383 34.0703 238.914 33.9062 239.898 33.5781C240.008 33.5469 240.242 33.5312 240.602 33.5312C240.867 33.5312 241.055 33.5703 241.164 33.6484C241.18 33.6641 241.344 33.8203 241.656 34.1172C241.844 34.1641 241.953 34.1875 241.984 34.1875C242.016 34.1875 242.242 34.0781 242.664 33.8594C242.695 33.8438 242.734 33.8359 242.781 33.8359C242.984 33.8359 243.219 33.9531 243.484 34.1875C243.734 34.4062 243.914 34.7422 244.023 35.1953C243.789 35.4297 243.32 35.7969 242.617 36.2969C242.273 36.7344 242.023 36.9531 241.867 36.9531C241.617 36.9531 241.289 36.7031 240.883 36.2031C240.602 36.2344 240.367 36.25 240.18 36.25C239.977 36.25 239.641 36.1562 239.172 35.9688C238.797 35.8281 238.414 35.7344 238.023 35.6875C237.867 36 237.609 36.1719 237.25 36.2031C236.812 36.2344 236.539 36.2656 236.43 36.2969C235.805 36.4844 235.492 36.5781 235.492 36.5781C235.43 36.5781 235.305 36.5234 235.117 36.4141C234.805 36.6953 234.258 37.1172 233.477 37.6797C232.977 38.0391 232.734 38.6719 232.75 39.5781V39.6484C232.75 39.8359 232.75 40.0859 232.75 40.3984C232.766 40.6797 232.773 40.9141 232.773 41.1016C232.773 41.2734 232.594 41.5312 232.234 41.875C232.5 42.1562 232.633 42.3984 232.633 42.6016C232.633 42.7109 232.617 42.8438 232.586 43L232.938 43.0938L233.008 43.7969L233.125 47.9922L233.031 48.25L232.422 48.5781C231.547 48.75 231.109 48.8672 231.109 48.9297C231.109 48.9922 231.602 49.0938 232.586 49.2344L232.984 49.1406C233.141 49.6562 233.219 50.0078 233.219 50.1953C233.219 50.5547 233.039 50.8359 232.68 51.0391C232.539 51.1172 232.141 51.1953 231.484 51.2734C231.359 51.3047 231.023 51.5 230.477 51.8594C230.383 51.9219 230.273 51.9531 230.148 51.9531C229.773 51.9531 229.586 51.7891 229.586 51.4609C229.586 51.3672 229.703 50.9219 229.938 50.125C229.969 50.0312 229.984 49.9375 229.984 49.8438C229.984 49.8125 229.945 49.4609 229.867 48.7891C229.867 48.7422 229.898 48.6094 229.961 48.3906L230.523 48.2266C230.539 48.0859 230.547 47.9609 230.547 47.8516C230.547 47.6484 230.43 47.4062 230.195 47.125C230.195 46.9062 230.195 46.7109 230.195 46.5391C230.195 46.3984 230.148 46.0312 230.055 45.4375C230.102 44.9219 230.125 44.4844 230.125 44.125C230.703 43.9219 230.992 43.6719 230.992 43.375C230.992 43.2812 230.969 43.1562 230.922 43C230.734 43.0469 230.578 43.0703 230.453 43.0703C230.344 43.0703 230.211 43.0078 230.055 42.8828C230.055 42.5703 230.055 42.2266 230.055 41.8516V41.3594V40.7266V40.5391C230.055 40.4141 230.047 40.2734 230.031 40.1172C230.031 39.9609 230.031 39.8359 230.031 39.7422C230.031 39.4922 230.133 39.1562 230.336 38.7344C230.133 38.5625 230.016 38.4141 229.984 38.2891C229.969 38.2422 229.938 37.7344 229.891 36.7656C229.875 36.5781 229.703 36.2812 229.375 35.875ZM245.312 14.4531C245.656 14.2969 246.406 13.8203 247.562 13.0234C248.125 12.8516 248.57 12.6719 248.898 12.4844C249.055 12.5312 249.133 12.625 249.133 12.7656C249.133 12.8125 249.031 13.1953 248.828 13.9141C248.812 13.9453 248.805 14 248.805 14.0781V14.2422V14.4062L248.898 17.5C248.93 17.625 248.547 17.8594 247.75 18.2031C247.297 18.4062 247.07 18.6719 247.07 19C247.07 19.4531 247.703 20.125 248.969 21.0156L248.242 21.2266L248.289 23.2891C248.43 23.3672 248.523 23.4062 248.57 23.4062C248.867 23.4844 249.016 23.5781 249.016 23.6875C249.016 23.8125 248.984 24.0625 248.922 24.4375C248.906 24.5312 248.898 24.6094 248.898 24.6719C248.898 24.75 248.953 25.1797 249.062 25.9609V32.4766C249.062 32.7109 249 33.0625 248.875 33.5312C248.844 33.6406 248.828 33.7812 248.828 33.9531C248.828 34.4375 249.016 34.8984 249.391 35.3359C249.391 35.4766 249.375 35.6328 249.344 35.8047C249.297 36.0391 249.273 36.2422 249.273 36.4141V36.4375C249.273 37.2188 249.305 37.6797 249.367 37.8203C249.445 37.9922 249.484 38.0781 249.484 38.0781L248.031 39.9297L249.391 40.7969C249.25 41.6562 249.18 42.1016 249.18 42.1328C249.18 42.3672 249.289 42.6875 249.508 43.0938C249.664 43.0312 250.031 42.7578 250.609 42.2734L252.039 41.2656L254.242 38.9688L255.109 38.125L255.672 37.5391L257.102 36.0859C257.914 35.0859 258.43 34.4844 258.648 34.2812C259.367 33.6562 259.977 33.2344 260.477 33.0156C260.695 33.25 261 33.4531 261.391 33.625C261.422 33.8281 261.438 33.9844 261.438 34.0938C261.438 34.5781 261.242 35.0078 260.852 35.3828C260.633 35.6016 260.289 35.7422 259.82 35.8047C259.492 36.2578 259.227 36.4922 259.023 36.5078C258.602 36.5547 258.312 36.6328 258.156 36.7422C258.219 37.0078 258.25 37.2344 258.25 37.4219C258.25 37.7188 257.922 38.0781 257.266 38.5C256.969 38.6875 256.758 38.8438 256.633 38.9688C256.398 39.1875 256.242 39.3203 256.164 39.3672C256.133 39.4141 255.938 39.4453 255.578 39.4609C255.516 39.7578 255.438 39.9766 255.344 40.1172C255.297 40.1641 254.992 40.3594 254.43 40.7031C253.461 41.5156 252.898 41.9922 252.742 42.1328C252.57 42.2891 252.445 42.5 252.367 42.7656C253.039 43.5 253.578 43.9922 253.984 44.2422C255.141 44.9766 255.727 45.3906 255.742 45.4844C255.82 45.7656 255.961 45.9922 256.164 46.1641C256.148 46.2422 256.141 46.3125 256.141 46.375C256.141 46.5 256.227 46.6406 256.398 46.7969C256.898 47.2188 257.164 47.4375 257.195 47.4531C257.508 47.3594 257.75 47.2578 257.922 47.1484C259.297 47.7734 260.25 48.1562 260.781 48.2969L260.711 48.8594C261.008 49.1094 261.242 49.2344 261.414 49.2344C261.477 49.2344 261.695 49.1641 262.07 49.0234L262.727 49.3047C263.008 49.3984 263.195 49.5156 263.289 49.6562C263.523 49.6094 263.727 49.5859 263.898 49.5859C263.945 49.5859 264 49.5938 264.062 49.6094C264.328 49.6719 264.469 49.7031 264.484 49.7031C264.484 49.7031 264.734 49.6172 265.234 49.4453L265.352 49.5625C265.367 49.6094 265.375 49.6406 265.375 49.6562C265.375 49.7031 265.25 50.0625 265 50.7344C264.812 51.2344 264.422 51.6328 263.828 51.9297C263.656 51.9922 263.281 52.0391 262.703 52.0703C262.234 52.2578 261.969 52.3516 261.906 52.3516C261.797 52.3516 261.461 52.2422 260.898 52.0234C259.945 51.7734 259.344 51.5859 259.094 51.4609C258.609 51.2266 258.297 51.0703 258.156 50.9922C258.203 50.7891 258.227 50.6172 258.227 50.4766C258.227 50.3672 258.195 50.2734 258.133 50.1953C257.992 50.0078 257.828 49.9141 257.641 49.9141C257.625 49.9141 257.602 49.9141 257.57 49.9141C257.023 50.0078 256.742 50.0547 256.727 50.0547C256.617 50.0547 256.445 49.9453 256.211 49.7266C255.883 49.4453 255.453 49.125 254.922 48.7656L253.68 47.7109L252.906 47.4531C252.406 46.9375 251.641 46.2656 250.609 45.4375C249.984 45.0156 249.633 44.8047 249.555 44.8047C249.352 44.8047 249.25 44.9297 249.25 45.1797C249.25 45.3047 249.281 45.4766 249.344 45.6953C249.406 45.9766 249.438 46.7422 249.438 47.9922L249.695 50.1484C249.695 50.1484 249.68 50.2734 249.648 50.5234C249.633 50.6641 249.617 50.875 249.602 51.1562C249.383 51.3281 249.258 51.4219 249.227 51.4375C249.195 51.4531 248.852 51.5391 248.195 51.6953C247.57 51.8516 246.992 52.0625 246.461 52.3281L246.227 51.6719V51.6484C246.445 50.5078 246.594 49.4141 246.672 48.3672L246.789 45.0156L247.281 45.0859L247.562 44.4062C247.141 44.1094 246.93 43.8516 246.93 43.6328C246.93 43.3203 247.117 42.8516 247.492 42.2266L246.812 41.8516C247.656 41.5391 248.078 41.2422 248.078 40.9609C248.078 40.8047 247.93 40.6328 247.633 40.4453C247.055 40.0859 246.75 39.8516 246.719 39.7422C246.719 39.7422 246.727 39.6719 246.742 39.5312C246.773 39.4219 246.789 39.2656 246.789 39.0625V39.0391C246.789 38.9922 246.766 38.7344 246.719 38.2656C246.688 38.0469 246.672 37.7656 246.672 37.4219C246.672 37.25 246.68 36.9844 246.695 36.625L247.352 36.1094V35.9453L246.719 35.5L246.508 31.5859L246.297 30.0625C246.781 29.6406 247.023 29.2969 247.023 29.0312C247.023 28.8125 246.789 28.5469 246.32 28.2344C246.383 28.0312 246.414 27.9219 246.414 27.9062C246.117 26.0469 245.969 25.0547 245.969 24.9297C245.969 24.7891 246.062 24.1875 246.25 23.125L246.18 22.7266C246.164 22.5234 246 22.3359 245.688 22.1641C245.703 22.0391 245.711 21.9375 245.711 21.8594C245.711 21.7812 245.648 21.5859 245.523 21.2734L245.57 20.4766C245.43 19.2734 245.359 18.6328 245.359 18.5547C245.359 18.4297 245.367 18.2578 245.383 18.0391C245.398 17.6641 245.406 17.2656 245.406 16.8438C245.406 16.5 245.359 16.2578 245.266 16.1172C245.25 16.0859 245.242 16.0703 245.242 16.0703L245.453 15.2266C245.453 15.2266 245.445 15.2109 245.43 15.1797C245.352 15.0391 245.312 14.7969 245.312 14.4531ZM282.062 34.5625L282.812 34.0938C283.047 34.375 283.211 34.5547 283.305 34.6328C283.336 34.6641 283.5 34.7422 283.797 34.8672C283.953 34.9453 284.625 35.6016 285.812 36.8359C286.188 37.2266 286.445 37.5938 286.586 37.9375C286.711 38.2344 286.844 38.5938 286.984 39.0156C287.078 39.2344 287.188 39.5156 287.312 39.8594L287.148 40.0234C286.977 39.9922 286.742 39.9219 286.445 39.8125L285.555 40.1406L284.758 40L284.055 40.1875C283.086 39.5 282.578 39.1562 282.531 39.1562C282.438 39.1562 282.07 39.4766 281.43 40.1172C280.43 39.9297 279.898 39.8359 279.836 39.8359C279.586 39.8359 279.289 39.8594 278.945 39.9062L278.828 39.8125C278.578 39.8438 277.898 39.8594 276.789 39.8594L275.922 39.9531L274.844 40.0469L273.742 40.2344L272.758 40.2109C271.852 40.4922 271.234 40.6562 270.906 40.7031C270.828 41.2344 270.75 41.6016 270.672 41.8047C270.578 42.0391 270.391 42.2969 270.109 42.5781C270.609 42.9219 270.875 43.1641 270.906 43.3047C271.062 44.3047 271.211 44.9766 271.352 45.3203L271.773 45.5547L271.656 46.4219L272.383 46.6094C272.539 47.25 272.742 47.6797 272.992 47.8984C273.227 48.1016 273.617 48.2422 274.164 48.3203C274.242 48.8047 274.367 49.0938 274.539 49.1875C274.664 49.2812 274.945 49.3438 275.383 49.375L275.781 49.9844C275.953 49.9531 276.102 49.9375 276.227 49.9375C276.32 49.9375 276.789 50.1328 277.633 50.5234C277.82 50.6172 278.023 50.6641 278.242 50.6641C278.445 50.6641 278.844 50.5703 279.438 50.3828L280.938 50.2188L282.086 49.8906C282.633 49.8594 283 49.8125 283.188 49.75C283.453 49.6406 283.938 49.3672 284.641 48.9297C285.328 48.5078 285.727 48.2188 285.836 48.0625C286.117 47.7344 286.383 47.3594 286.633 46.9375C286.758 46.75 286.977 46.6562 287.289 46.6562C287.43 46.6562 287.633 46.7578 287.898 46.9609C287.789 47.5234 287.688 47.8906 287.594 48.0625C286.938 49.1719 286.523 49.9062 286.352 50.2656C286.148 50.1719 285.977 50.125 285.836 50.125C285.742 50.125 285.484 50.2812 285.062 50.5938C284.781 50.7812 284.43 50.8906 284.008 50.9219C283.039 51.1875 282.367 51.3438 281.992 51.3906C281.352 51.4531 280.945 51.5078 280.773 51.5547C280.289 51.7109 280.039 51.7891 280.023 51.7891L278.641 51.5781L277.82 51.7188L277.422 51.7422C277.047 51.7891 276.758 51.8125 276.555 51.8125C276.352 51.8125 275.781 51.7578 274.844 51.6484C274.547 51.6172 274.398 51.6016 274.398 51.6016L273.906 51.2969C272.734 50.9375 272.086 50.7266 271.961 50.6641C271.883 50.6172 271.617 50.3828 271.164 49.9609C271.133 49.9297 270.859 49.7578 270.344 49.4453C269.906 49.1797 269.672 48.9766 269.641 48.8359L269.219 48.0859C269.156 47.9609 268.891 47.6641 268.422 47.1953C268.578 46.9453 268.656 46.7578 268.656 46.6328C268.656 46.5859 268.453 46.1484 268.047 45.3203C267.938 45.1016 267.883 44.4375 267.883 43.3281C267.883 42.9844 267.992 42.4219 268.211 41.6406C268.398 41.0312 268.531 40.6797 268.609 40.5859L269.406 39.6484L269.922 38.5469C270.453 38.0469 271.062 37.4844 271.75 36.8594L273.461 35.8047L275.195 34.6094L275.828 34.4922L277.609 33.9297L278.758 33.8359C279.68 33.4922 280.188 33.3203 280.281 33.3203C281.156 33.3203 281.75 33.7344 282.062 34.5625ZM279.344 38.0781L279.742 38.5703C280.055 38.5078 280.266 38.4688 280.375 38.4531C280.797 38.3906 281.219 38.2812 281.641 38.125L282.977 38.2422C282.992 38.2422 283.031 38.1641 283.094 38.0078C283.109 37.9141 283.117 37.8359 283.117 37.7734C283.117 37.6328 283.023 37.4609 282.836 37.2578C282.805 37.2266 282.727 37.1328 282.602 36.9766C282.227 36.4766 281.992 36.2422 281.898 36.2734L281.125 35.8984C281.031 35.8516 280.883 35.6719 280.68 35.3594C280.227 35.2969 279.453 35.2656 278.359 35.2656L277.891 35.2422L277.094 35.7109C277.062 35.7422 276.633 35.8516 275.805 36.0391C275.148 36.2734 274.57 36.5 274.07 36.7188C273.961 36.7969 273.656 37.0625 273.156 37.5156C273.062 37.5938 272.883 37.7344 272.617 37.9375V38.0781L272.664 38.125L274.375 38.8047L274.891 39.3203L275.805 38.2188C275.883 38.1562 275.969 38.125 276.062 38.125C276.109 38.125 276.492 38.2266 277.211 38.4297C277.227 38.4297 277.242 38.4297 277.258 38.4297C277.461 38.4297 277.906 38.3516 278.594 38.1953C278.75 38.1484 279 38.1094 279.344 38.0781ZM292.305 35.3594C292.43 34.75 292.641 34.4453 292.938 34.4453H292.961L294.109 34.5156H294.156C295.031 34.3906 295.531 34.3203 295.656 34.3047C295.656 34.0234 295.656 33.8359 295.656 33.7422C295.656 32.2734 295.625 31.0703 295.562 30.1328C295.531 29.7266 295.438 29.3594 295.281 29.0312L295.047 28.5391C294.984 28.4141 294.953 28.2812 294.953 28.1406C294.953 27.9062 295.141 27.625 295.516 27.2969C296.094 26.7656 296.828 26.4141 297.719 26.2422C297.922 25.8203 298.141 25.6094 298.375 25.6094C298.469 25.6094 298.547 25.6484 298.609 25.7266C298.828 25.9609 298.938 26.2656 298.938 26.6406C298.938 26.6562 298.867 27.8906 298.727 30.3438C298.539 30.9844 298.422 31.3594 298.375 31.4688C298.312 31.6875 298.133 31.9141 297.836 32.1484C297.836 32.4609 297.883 32.7656 297.977 33.0625H298.516L298.375 34.2578C298.766 34.2891 299.578 34.4766 300.812 34.8203C300.891 34.8359 301.156 34.8438 301.609 34.8438C301.891 34.8438 302.352 34.75 302.992 34.5625L304.539 34.4219C305.336 34.1094 305.805 33.9531 305.945 33.9531C306.148 33.9531 306.398 33.9766 306.695 34.0234C306.664 34.4609 306.617 34.7734 306.555 34.9609C306.492 35.1953 306 35.5938 305.078 36.1562C304.859 36.2812 304.703 36.3984 304.609 36.5078C304.375 36.7891 304.25 36.9297 304.234 36.9297C304.156 36.9922 303.969 37.0234 303.672 37.0234C303.438 37.0234 303.266 36.9922 303.156 36.9297L302.195 36.4141L301.609 36.2734L300.906 35.7578L299.711 36.6719L298.68 36.5312C298.602 36.5312 298.445 36.6094 298.211 36.7656C298.336 37.5156 298.398 38.1484 298.398 38.6641C298.398 38.9141 298.391 39.2812 298.375 39.7656C297.797 39.8594 297.508 40.0938 297.508 40.4688C297.508 40.6094 297.539 40.7812 297.602 40.9844C297.945 41.0156 298.234 41.0625 298.469 41.125L298.422 44.0547C298.188 43.9922 297.992 43.9609 297.836 43.9609C297.555 43.9609 297.414 44.0781 297.414 44.3125C297.414 44.5 297.484 44.7266 297.625 44.9922C297.844 44.8516 298.031 44.7812 298.188 44.7812C298.422 44.7812 298.539 44.9297 298.539 45.2266L298.469 46.1641V46.2109C298.5 46.8516 298.523 47.3125 298.539 47.5938C298.57 47.8906 298.664 48.1875 298.82 48.4844L299.102 48.9766C299.133 49.0391 299.148 49.1328 299.148 49.2578C299.148 49.3984 299.133 49.5781 299.102 49.7969C299.586 50.0781 300.125 50.2188 300.719 50.2188C301.219 50.2188 301.719 50.0938 302.219 49.8438C302.625 49.625 302.844 49.5 302.875 49.4688L304.164 48.2969C304.805 47.7656 305.195 47.5 305.336 47.5C305.477 47.5 305.672 47.5703 305.922 47.7109C305.875 48.0078 305.844 48.2109 305.828 48.3203C305.719 49.1328 305.609 49.6094 305.5 49.75C305.391 49.875 304.914 50.0703 304.07 50.3359C303.43 50.6641 302.461 51.0469 301.164 51.4844L300.367 51.7422C299.836 52.0391 299.531 52.1875 299.453 52.1875C299.312 52.1875 299.156 52.0469 298.984 51.7656L298.562 51.6484L298.305 52.2344C298.086 52.2656 297.898 52.2812 297.742 52.2812C297.336 52.2812 296.852 52.0156 296.289 51.4844C296.039 51.2344 295.836 50.9766 295.68 50.7109C295.664 50.6953 295.602 50.4922 295.492 50.1016C295.32 49.5859 295.234 49.2891 295.234 49.2109C295.234 49.0703 295.25 48.8438 295.281 48.5312C295.312 48.2812 295.328 47.7578 295.328 46.9609C295.344 46.4453 295.484 46.0547 295.75 45.7891C295.656 45.4922 295.609 45.1328 295.609 44.7109C295.531 43.9922 295.484 42.625 295.469 40.6094C295.844 40.375 296.031 40.1484 296.031 39.9297C296.031 39.8047 296.016 39.6562 295.984 39.4844L295.305 39.3203L295.258 39.1094V39.0859C295.258 39.0078 295.281 38.8438 295.328 38.5938C295.422 38.1875 295.469 37.4844 295.469 36.4844C294.828 36.3438 294.359 36.2734 294.062 36.2734C293.969 36.2734 293.562 36.3203 292.844 36.4141L292.352 36.4609C291.914 36.6016 291.68 36.6719 291.648 36.6719C291.43 36.6719 291.32 36.5703 291.32 36.3672C291.32 36.0547 291.648 35.7188 292.305 35.3594Z" fill="black"/>
</svg>
